# xmcd CD database file
#
# Track frame offsets:
#	182
#	18245
#	31100
#	46907
#	62077
#	82087
#	105590
#	120557
#	137102
#	153095
#	163650
#	176347
#	191910
#	209545
#	226277
#	243132
#	254142
#	266495
#	280167
#	298257
#
# Disc length: 4392 seconds
#
# Revision: 8
# Processed by: cddbd v1.5.2PL0 Copyright (c) Steve Scherf et al.
# Submitted via: CDex 1.51
#
DISCID=1c112614
DTITLE=Jimi Hendrix - The Ultimate Experience
DYEAR=1992
DGENRE=Rock/Pop
TTITLE0=All Along The Watchtower
TTITLE1=Purple Haze
TTITLE2=Hey Joe
TTITLE3=The Wind Cries Mary
TTITLE4=Angel
TTITLE5=Voodoo Child (Slight Return)
TTITLE6=Foxy Lady
TTITLE7=Burning Of The Midnight Lamp
TTITLE8=Highway Chile
TTITLE9=Crosstown Traffic
TTITLE10=Castles Made Of Sand
TTITLE11=Long Hot Summer Night
TTITLE12=Red House
TTITLE13=Manic Depression
TTITLE14=Gypsy Eyes
TTITLE15=Little Wing
TTITLE16=Fire
TTITLE17=Wait Until Tomorrow
TTITLE18=Star Spangled Banner [Live at The Woodstock Music and Arts Fair, 1969]
TTITLE19=Wild Thing [Live at The Monterey Pop Festival, 1967]
EXTD=YEAR: 1992
EXTT0=
EXTT1=
EXTT2=
EXTT3=
EXTT4=
EXTT5=
EXTT6=
EXTT7=
EXTT8=
EXTT9=
EXTT10=
EXTT11=
EXTT12=
EXTT13=
EXTT14=
EXTT15=
EXTT16=
EXTT17=
EXTT18=
EXTT19=
PLAYORDER=
